<svg width="24" height="25" viewBox="0 0 24 25" fill="none" xmlns="http://www.w3.org/2000/svg">
<path d="M19.84 7.78L21.24 20.66C21.265 20.8859 21.2453 21.1145 21.1819 21.3327C21.1186 21.551 21.0128 21.7546 20.8707 21.932C20.7287 22.1094 20.553 22.257 20.3539 22.3665C20.1547 22.4759 19.9359 22.5451 19.71 22.57H4.48002C4.02293 22.57 3.5844 22.3891 3.26025 22.0668C2.9361 21.7446 2.75267 21.3071 2.75002 20.85C2.74478 20.7868 2.74478 20.7232 2.75002 20.66L4.16002 7.78C4.16516 7.71015 4.19723 7.64503 4.24947 7.59838C4.30172 7.55174 4.37004 7.52722 4.44002 7.53H19.56C19.63 7.52722 19.6983 7.55174 19.7506 7.59838C19.8028 7.64503 19.8349 7.71015 19.84 7.78Z" stroke="black" stroke-width="1.25" stroke-linecap="round" stroke-linejoin="round"/>
<path d="M16.2295 7.52999V5.99999C16.2295 4.87812 15.7839 3.80221 14.9906 3.00893C14.1973 2.21565 13.1214 1.76999 11.9995 1.76999C10.8777 1.76999 9.80175 2.21565 9.00847 3.00893C8.21519 3.80221 7.76953 4.87812 7.76953 5.99999V7.52999" stroke="black" stroke-width="1.25" stroke-linecap="round" stroke-linejoin="round"/>
</svg>
