<?xml version="1.0" standalone="no"?>
<!DOCTYPE svg PUBLIC "-//W3C//DTD SVG 20010904//EN"
 "http://www.w3.org/TR/2001/REC-SVG-20010904/DTD/svg10.dtd">
<svg version="1.0" xmlns="http://www.w3.org/2000/svg"
 width="18.000000pt" height="18.000000pt" viewBox="0 0 18.000000 18.000000"
 preserveAspectRatio="xMidYMid meet">
<metadata>
Created by potrace 1.16, written by Peter Selinger 2001-2019
</metadata>
<g transform="translate(0.000000,18.000000) scale(0.003516,-0.003516)"
fill="#000000" stroke="none">
<path d="M1603 3065 c-60 -26 -89 -108 -60 -176 10 -26 130 -136 462 -424 246
-215 459 -396 473 -404 15 -8 52 -14 82 -14 30 0 67 6 82 14 14 8 229 191 477
407 487 424 483 420 467 505 -14 76 -89 123 -153 95 -18 -7 -218 -175 -444
-373 -227 -197 -420 -359 -429 -359 -8 0 -201 162 -428 359 -227 198 -425 365
-440 372 -35 16 -50 15 -89 -2z"/>
</g>
</svg>
