<svg width="138" height="23" viewBox="0 0 138 23" fill="none" xmlns="http://www.w3.org/2000/svg">
<g clip-path="url(#clip0_1_294)">
<path d="M0.279785 20.9556C1.14979 21.0756 2.52978 21.1956 4.32978 21.1956C7.62978 21.1956 9.90979 20.5956 11.2898 19.3056C12.3398 18.3456 13.0298 16.9956 13.0298 15.2556C13.0298 12.2556 10.7798 10.6656 8.85979 10.2156V10.1256C10.9598 9.37563 12.2798 7.66563 12.2798 5.68563C12.2798 4.09563 11.6198 2.89563 10.5698 2.11563C9.33978 1.09563 7.65979 0.64563 5.04979 0.64563C3.24979 0.64563 1.41979 0.82563 0.279785 1.09563V20.9556ZM2.88979 2.83563C3.30979 2.74563 3.99978 2.65563 5.19978 2.65563C7.83978 2.65563 9.60979 3.61563 9.60979 5.95563C9.60979 7.90563 7.98979 9.37563 5.25979 9.37563H2.88979V2.83563ZM2.88979 11.3256H5.04979C7.89979 11.3256 10.2698 12.4956 10.2698 15.2256C10.2698 18.1656 7.77979 19.1556 5.07978 19.1556C4.14978 19.1556 3.42979 19.1256 2.88979 19.0356V11.3256ZM22.5096 21.0156H33.7896V18.8256H25.1496V0.79563H22.5096V21.0156ZM42.66 0.79563V21.0156H45.3V0.79563H42.66ZM58.3277 21.0156V12.3756C58.3277 9.01563 58.2977 6.58563 58.1477 4.03563L58.2377 4.00563C59.2277 6.19563 60.5777 8.50563 61.9877 10.7556L68.4077 21.0156H71.0477V0.79563H68.5877V9.25563C68.5877 12.4056 68.6477 14.8656 68.8877 17.5656L68.7977 17.5956C67.8677 15.5256 66.6677 13.3956 65.1977 11.0256L58.7477 0.79563H55.8677V21.0156H58.3277ZM81.6138 21.0156H84.2238V13.3056L86.1738 11.0856L92.8038 21.0156H95.8938L88.0038 9.37563L95.3238 0.79563H92.0838L85.9038 8.38563C85.3938 9.04563 84.8538 9.76563 84.3138 10.5456H84.2238V0.79563H81.6138V21.0156ZM114.314 9.37563H106.484V2.98563H114.794V0.79563H103.844V21.0156H115.244V18.8256H106.484V11.5356H114.314V9.37563ZM124.639 21.0156H127.249V12.2556H129.709C132.079 12.3456 133.189 13.3956 133.789 16.1856C134.329 18.7056 134.779 20.4156 135.109 21.0156H137.809C137.389 20.2356 136.909 18.2856 136.249 15.4656C135.769 13.3656 134.839 11.9256 133.309 11.3856V11.2956C135.409 10.5756 137.089 8.80563 137.089 6.16563C137.089 4.57563 136.489 3.19563 135.499 2.29563C134.269 1.18563 132.439 0.64563 129.649 0.64563C127.879 0.64563 125.959 0.82563 124.639 1.06563V21.0156ZM127.249 2.89563C127.699 2.77563 128.569 2.68563 129.829 2.68563C132.589 2.68563 134.479 3.82563 134.479 6.43563C134.479 8.74563 132.709 10.2756 129.919 10.2756H127.249V2.89563Z" fill="#151515"/>
</g>
<defs>
<clipPath id="clip0_1_294">
<rect width="138" height="22" fill="white" transform="translate(0 0.015625)"/>
</clipPath>
</defs>
</svg>
