<svg width="89" height="71" viewBox="0 0 89 71" fill="none" xmlns="http://www.w3.org/2000/svg">
<g clip-path="url(#clip0_1_5)">
<path d="M21.5385 64.3187H12.8885C12.3589 64.3187 12.0059 63.9657 12.0059 63.4361V19.3032C12.0059 18.7737 12.3589 18.4206 12.8885 18.4206H21.7151V20.1859H13.7712V62.5534H21.5385V64.3187Z" fill="#151515"/>
<path d="M27.0109 69.6147C23.5685 69.6147 20.8323 66.8785 20.8323 63.4361C20.8323 59.9937 23.5685 57.2575 27.0109 57.2575C30.4532 57.2575 33.1895 59.9937 33.1895 63.4361C33.1895 66.8785 30.4532 69.6147 27.0109 69.6147ZM27.0109 59.0228C24.5394 59.0228 22.5976 60.9647 22.5976 63.4361C22.5976 65.9075 24.5394 67.8494 27.0109 67.8494C29.4823 67.8494 31.4241 65.9075 31.4241 63.4361C31.4241 60.9647 29.4823 59.0228 27.0109 59.0228Z" fill="#151515"/>
<path d="M37.6027 36.0737C28.3349 36.0737 20.8323 28.5711 20.8323 19.3032C20.8323 10.0354 28.3349 2.53278 37.6027 2.53278C46.8706 2.53278 54.3732 10.0354 54.3732 19.3032C54.3732 28.5711 46.8706 36.0737 37.6027 36.0737ZM37.6027 4.29809C29.3058 4.29809 22.5976 11.0063 22.5976 19.3032C22.5976 27.6002 29.3058 34.3084 37.6027 34.3084C45.8997 34.3084 52.6079 27.6002 52.6079 19.3032C52.6079 11.0063 45.8997 4.29809 37.6027 4.29809Z" fill="#151515"/>
<path d="M19.0671 42.2523H4.94458V44.0176H19.0671V42.2523Z" fill="#151515"/>
<path d="M68.4957 62.5534H62.3171V64.3187H68.4957V62.5534Z" fill="#151515"/>
<path d="M87.0315 64.3188H79.0876V62.5534H86.1489V49.5784L76.881 35.1911H62.3171V33.4258H77.3223C77.5871 33.4258 77.9402 33.6023 78.0284 33.8671L87.7376 48.8723C87.8259 49.0488 87.9142 49.1371 87.9142 49.3136V63.4361C87.9142 63.9657 87.5611 64.3188 87.0315 64.3188Z" fill="#151515"/>
<path d="M62.3173 64.3187H32.5718V62.5534H61.4346V20.1859H53.4907V18.4206H62.3173C62.8469 18.4206 63.1999 18.7737 63.1999 19.3032V63.4361C63.1999 63.9657 62.8469 64.3187 62.3173 64.3187Z" fill="#151515"/>
<path d="M73.7916 69.6147C70.3493 69.6147 67.613 66.8785 67.613 63.4361C67.613 59.9937 70.3493 57.2575 73.7916 57.2575C77.234 57.2575 79.9702 59.9937 79.9702 63.4361C79.9702 66.8785 77.234 69.6147 73.7916 69.6147ZM73.7916 59.0228C71.3202 59.0228 69.3783 60.9647 69.3783 63.4361C69.3783 65.9075 71.3202 67.8494 73.7916 67.8494C76.2631 67.8494 78.2049 65.9075 78.2049 63.4361C78.2049 60.9647 76.2631 59.0228 73.7916 59.0228Z" fill="#151515"/>
<path d="M80.8529 50.1962H68.4957C67.9661 50.1962 67.613 49.8432 67.613 49.3136V40.487C67.613 39.9574 67.9661 39.6044 68.4957 39.6044H75.5569C75.91 39.6044 76.1748 39.7809 76.3513 40.0457L81.6473 48.8723C81.9121 49.3136 81.7355 49.8432 81.2942 50.108C81.2059 50.1962 81.0294 50.1962 80.8529 50.1962ZM69.3783 48.4309H79.2641L75.0274 41.3697H69.3783V48.4309Z" fill="#151515"/>
<path d="M42.016 22.4808H36.7201C36.1905 22.4808 35.8374 22.1277 35.8374 21.5981V13.6542H37.6027V20.7155H42.016V22.4808Z" fill="#151515"/>
<path d="M19.0669 33.4258H1.41382V35.1911H19.0669V33.4258Z" fill="#151515"/>
<path d="M19.0671 24.5992H4.94458V26.3645H19.0671V24.5992Z" fill="#151515"/>
</g>
<defs>
<clipPath id="clip0_1_5">
<rect width="88.2656" height="69.9946" fill="white" transform="translate(0.53125 0.502686)"/>
</clipPath>
</defs>
</svg>
