<svg width="71" height="71" viewBox="0 0 71 71" fill="none" xmlns="http://www.w3.org/2000/svg">
<path d="M58.7833 57.319H4.28829C4.03766 57.319 3.7895 57.2695 3.55804 57.1734C3.32658 57.0773 3.11637 56.9364 2.93948 56.7588C2.76258 56.5813 2.62248 56.3706 2.52721 56.1388C2.43194 55.9069 2.38337 55.6586 2.38429 55.408V15.844C2.38429 15.6583 2.45804 15.4803 2.58932 15.349C2.72059 15.2177 2.89864 15.144 3.08429 15.144H59.9943C60.1799 15.144 60.358 15.2177 60.4893 15.349C60.6205 15.4803 60.6943 15.6583 60.6943 15.844V55.408C60.6943 55.9148 60.493 56.4009 60.1346 56.7593C59.7762 57.1176 59.2901 57.319 58.7833 57.319ZM3.78429 16.544V55.408C3.78336 55.4748 3.79571 55.541 3.82063 55.603C3.84554 55.665 3.88252 55.7214 3.92941 55.7689C3.9763 55.8164 4.03218 55.8542 4.09379 55.88C4.1554 55.9057 4.22151 55.919 4.28829 55.919H58.7833C58.9188 55.919 59.0488 55.8651 59.1446 55.7693C59.2405 55.6735 59.2943 55.5435 59.2943 55.408V16.544H3.78429Z" fill="black"/>
<path d="M59.9944 16.544H3.0844C2.95258 16.5447 2.82324 16.5082 2.71126 16.4386C2.59928 16.3691 2.50922 16.2693 2.45144 16.1508C2.39366 16.0323 2.37051 15.8999 2.38466 15.7689C2.3988 15.6378 2.44967 15.5134 2.5314 15.41L12.0164 3.46798C12.1984 3.24735 12.4273 3.07004 12.6864 2.94895C12.9455 2.82787 13.2284 2.76605 13.5144 2.76798H49.5574C49.8436 2.76505 50.1268 2.82642 50.386 2.94758C50.6453 3.06874 50.8741 3.24658 51.0554 3.46798L60.5404 15.41C60.6218 15.5129 60.6725 15.6367 60.687 15.7671C60.7014 15.8976 60.6788 16.0294 60.6219 16.1477C60.565 16.2659 60.4759 16.3658 60.365 16.4358C60.254 16.5059 60.1256 16.5434 59.9944 16.544ZM4.5334 15.144H58.5454L49.9844 4.34298C49.9373 4.28198 49.8768 4.2326 49.8077 4.19862C49.7385 4.16464 49.6625 4.14697 49.5854 4.14698H13.5144C13.4373 4.14697 13.3613 4.16464 13.2921 4.19862C13.223 4.2326 13.1625 4.28198 13.1154 4.34298L4.5334 15.144Z" fill="black"/>
<path d="M36.3833 16.544H26.6953C26.5947 16.5449 26.4952 16.5241 26.4034 16.483C26.3116 16.4419 26.2297 16.3815 26.1633 16.306C26.0966 16.2303 26.047 16.141 26.018 16.0444C25.989 15.9477 25.9813 15.8459 25.9953 15.746L27.7593 3.34898C27.7831 3.18079 27.8672 3.02698 27.996 2.91622C28.1248 2.80546 28.2895 2.74531 28.4593 2.74698H34.6193C34.7892 2.74531 34.9538 2.80546 35.0826 2.91622C35.2114 3.02698 35.2955 3.18079 35.3193 3.34898L37.0833 15.746C37.0973 15.8459 37.0896 15.9477 37.0606 16.0444C37.0316 16.141 36.982 16.2303 36.9153 16.306C36.8489 16.3815 36.7671 16.4419 36.6753 16.483C36.5835 16.5241 36.4839 16.5449 36.3833 16.544ZM27.5003 15.144H35.5713L34.0103 4.14698H29.0613L27.5003 15.144Z" fill="black"/>
<path d="M26.6954 27.975C26.5968 27.9767 26.499 27.9576 26.4084 27.919C26.2845 27.8633 26.1795 27.7727 26.1061 27.6584C26.0328 27.544 25.9943 27.4108 25.9954 27.275V15.844C25.9954 15.6583 26.0691 15.4803 26.2004 15.349C26.3317 15.2177 26.5097 15.144 26.6954 15.144H36.3834C36.569 15.144 36.7471 15.2177 36.8784 15.349C37.0096 15.4803 37.0834 15.6583 37.0834 15.844V27.275C37.0839 27.4116 37.0443 27.5454 36.9697 27.6598C36.8951 27.7742 36.7886 27.8643 36.6634 27.919C36.5403 27.9732 36.4042 27.9908 36.2714 27.9697C36.1385 27.9486 36.0146 27.8897 35.9144 27.8L31.5394 23.859L27.1574 27.8C27.0298 27.9125 26.8655 27.9747 26.6954 27.975ZM27.3954 16.544V25.7L31.0844 22.403C31.2126 22.2888 31.3782 22.2258 31.5499 22.2258C31.7215 22.2258 31.8872 22.2888 32.0154 22.403L35.6834 25.7V16.544H27.3954Z" fill="black"/>
<path d="M19.3523 50.109C19.1667 50.109 18.9886 50.0353 18.8574 49.904C18.7261 49.7727 18.6523 49.5947 18.6523 49.409V40.785C18.6523 40.5994 18.7261 40.4213 18.8574 40.29C18.9886 40.1588 19.1667 40.085 19.3523 40.085C19.538 40.085 19.716 40.1588 19.8473 40.29C19.9786 40.4213 20.0523 40.5994 20.0523 40.785V49.409C20.0523 49.5947 19.9786 49.7727 19.8473 49.904C19.716 50.0353 19.538 50.109 19.3523 50.109Z" fill="black"/>
<path d="M21.5714 43.704C21.4793 43.7045 21.388 43.6869 21.3027 43.652C21.2174 43.6172 21.1398 43.5659 21.0744 43.501L19.3524 41.8L17.6304 43.522C17.5653 43.5876 17.4879 43.6397 17.4026 43.6752C17.3173 43.7107 17.2258 43.729 17.1334 43.729C17.041 43.729 16.9495 43.7107 16.8642 43.6752C16.7789 43.6397 16.7015 43.5876 16.6364 43.522C16.506 43.3908 16.4329 43.2134 16.4329 43.0285C16.4329 42.8436 16.506 42.6661 16.6364 42.535L18.8554 40.316C18.9866 40.1856 19.164 40.1124 19.3489 40.1124C19.5338 40.1124 19.7113 40.1856 19.8424 40.316L22.0614 42.5C22.1573 42.5978 22.2224 42.7217 22.2487 42.8562C22.2749 42.9906 22.261 43.1299 22.2089 43.2566C22.1567 43.3833 22.0685 43.4919 21.9552 43.5689C21.8419 43.646 21.7084 43.6881 21.5714 43.69V43.704Z" fill="black"/>
<path d="M11.4844 50.109C11.2988 50.109 11.1207 50.0353 10.9894 49.904C10.8582 49.7727 10.7844 49.5947 10.7844 49.409V40.785C10.7844 40.5994 10.8582 40.4213 10.9894 40.29C11.1207 40.1588 11.2988 40.085 11.4844 40.085C11.6701 40.085 11.8481 40.1588 11.9794 40.29C12.1107 40.4213 12.1844 40.5994 12.1844 40.785V49.409C12.1844 49.5947 12.1107 49.7727 11.9794 49.904C11.8481 50.0353 11.6701 50.109 11.4844 50.109Z" fill="black"/>
<path d="M13.7175 43.704C13.6254 43.7045 13.534 43.6869 13.4488 43.652C13.3635 43.6172 13.2859 43.5659 13.2205 43.501L11.4845 41.8L9.7625 43.522C9.69742 43.5876 9.62 43.6397 9.5347 43.6752C9.4494 43.7107 9.3579 43.729 9.2655 43.729C9.17309 43.729 9.08159 43.7107 8.99629 43.6752C8.91099 43.6397 8.83357 43.5876 8.7685 43.522C8.63812 43.3908 8.56494 43.2134 8.56494 43.0285C8.56494 42.8436 8.63812 42.6661 8.7685 42.535L10.9875 40.316C11.1186 40.1856 11.2961 40.1124 11.481 40.1124C11.6659 40.1124 11.8433 40.1856 11.9745 40.316L14.2075 42.5C14.3034 42.5978 14.3685 42.7217 14.3947 42.8562C14.4209 42.9906 14.4071 43.1299 14.3549 43.2566C14.3028 43.3833 14.2146 43.4919 14.1012 43.5689C13.9879 43.646 13.8545 43.6881 13.7175 43.69V43.704Z" fill="black"/>
<path d="M67.4423 60.518C67.3304 60.5184 67.2199 60.492 67.1203 60.441C66.9561 60.3546 66.8328 60.2066 66.7777 60.0294C66.7225 59.8522 66.74 59.6603 66.8263 59.496C68.1118 57.0264 68.5033 54.188 67.9344 51.4626C67.3655 48.7371 65.8711 46.2925 63.7049 44.5434C61.5388 42.7943 58.8342 41.8485 56.05 41.8665C53.2659 41.8844 50.5737 42.8651 48.4303 44.642C48.3605 44.7073 48.278 44.7576 48.188 44.7898C48.098 44.822 48.0024 44.8354 47.907 44.8293C47.8116 44.8231 47.7185 44.7974 47.6334 44.7539C47.5483 44.7103 47.473 44.6498 47.4121 44.5761C47.3513 44.5023 47.3063 44.4169 47.2797 44.3251C47.2532 44.2332 47.2457 44.1369 47.2578 44.0421C47.2699 43.9473 47.3013 43.8559 47.3501 43.7737C47.3988 43.6915 47.4639 43.6201 47.5413 43.564C49.934 41.5862 52.9368 40.4962 56.041 40.4786C59.1453 40.4609 62.1602 41.5167 64.5752 43.4672C66.9902 45.4177 68.6569 48.1429 69.2929 51.1813C69.929 54.2198 69.4953 57.3847 68.0653 60.14C68.0062 60.2541 67.9168 60.3498 67.8069 60.4165C67.697 60.4831 67.5709 60.5183 67.4423 60.518Z" fill="black"/>
<path d="M56.1303 67.385C53.9113 67.389 51.7257 66.8444 49.768 65.7996C47.8103 64.7549 46.1413 63.2423 44.9094 61.3966C43.6776 59.5509 42.9211 57.4293 42.7074 55.2206C42.4936 53.0119 42.8292 50.7846 43.6843 48.737C43.7568 48.5663 43.8941 48.4313 44.066 48.3618C44.238 48.2922 44.4305 48.2937 44.6013 48.366C44.7715 48.4372 44.9067 48.5728 44.9775 48.7432C45.0483 48.9136 45.049 49.1051 44.9793 49.276C43.9342 51.7657 43.7547 54.534 44.4696 57.1378C45.1846 59.7416 46.7526 62.0302 48.9225 63.6371C51.0925 65.244 53.7389 66.0762 56.438 66.0006C59.1371 65.925 61.7327 64.9459 63.8093 63.22C63.8779 63.1479 63.961 63.0912 64.0532 63.0538C64.1454 63.0163 64.2446 62.999 64.344 63.0029C64.4434 63.0068 64.5409 63.0319 64.6299 63.0764C64.7189 63.1209 64.7973 63.1839 64.8601 63.2612C64.9228 63.3385 64.9683 63.4282 64.9936 63.5245C65.0189 63.6207 65.0233 63.7212 65.0067 63.8194C64.9901 63.9175 64.9527 64.0109 64.8971 64.0934C64.8415 64.176 64.769 64.2457 64.6843 64.298C62.2789 66.2907 59.2539 67.3824 56.1303 67.385Z" fill="black"/>
<path d="M63.9003 68.253H63.8373C63.7453 68.2451 63.6557 68.219 63.5737 68.1763C63.4918 68.1336 63.4191 68.0751 63.3599 68.0042C63.3007 67.9332 63.2561 67.8513 63.2287 67.763C63.2013 67.6748 63.1917 67.582 63.2003 67.49L63.4943 64.389L60.4003 64.095C60.3084 64.0867 60.219 64.0604 60.1372 64.0176C60.0555 63.9748 59.983 63.9162 59.9238 63.8454C59.8647 63.7745 59.82 63.6927 59.7925 63.6046C59.765 63.5166 59.7551 63.4239 59.7633 63.332C59.7716 63.24 59.7979 63.1507 59.8407 63.0689C59.8835 62.9871 59.942 62.9146 60.0129 62.8554C60.0837 62.7963 60.1656 62.7517 60.2537 62.7241C60.3417 62.6966 60.4344 62.6867 60.5263 62.695L64.3203 63.059C64.5052 63.0743 64.6764 63.1625 64.7963 63.304C64.8554 63.3744 64.9 63.4558 64.9276 63.5435C64.9553 63.6311 64.9654 63.7234 64.9573 63.815L64.5933 67.609C64.5793 67.7835 64.5004 67.9465 64.3721 68.0658C64.2438 68.185 64.0755 68.2518 63.9003 68.253Z" fill="black"/>
<path d="M51.7834 45.16H51.7134L47.9194 44.803C47.7346 44.7876 47.5634 44.6995 47.4434 44.558C47.3847 44.4862 47.3409 44.4034 47.3144 44.3145C47.288 44.2255 47.2795 44.1322 47.2894 44.04L47.6464 40.246C47.6642 40.0613 47.7545 39.8912 47.8975 39.7731C48.0406 39.6549 48.2247 39.5984 48.4094 39.616C48.5941 39.6337 48.7642 39.724 48.8823 39.8671C49.0005 40.0102 49.057 40.1943 49.0394 40.379L48.7454 43.48L51.8464 43.767C52.0321 43.7753 52.2068 43.8571 52.3322 43.9943C52.4575 44.1315 52.5233 44.3128 52.5149 44.4985C52.5066 44.6841 52.4248 44.8589 52.2876 44.9842C52.1504 45.1096 51.9691 45.1753 51.7834 45.167V45.16Z" fill="black"/>
</svg>
