<svg width="69" height="71" viewBox="0 0 69 71" fill="none" xmlns="http://www.w3.org/2000/svg">
<path fill-rule="evenodd" clip-rule="evenodd" d="M39.9746 54.5723C39.4551 54.5723 39.0723 54.0938 39.168 53.5879L39.5918 51.332L37.9238 49.7598C37.418 49.2813 37.6914 48.4336 38.3887 48.3516L40.6582 48.0645L41.6289 46C41.9297 45.3711 42.8184 45.3711 43.1055 46L44.0762 48.0645L46.3457 48.3516C47.043 48.4336 47.3027 49.2949 46.8106 49.7598L45.1426 51.332L45.5664 53.5879C45.7031 54.2715 44.9649 54.8047 44.3633 54.4629L42.3535 53.3555C41.8477 53.6563 40.3574 54.5723 39.9746 54.5723ZM42.3672 51.6191C42.6953 51.6191 43.2559 52.002 43.625 52.207C43.3242 50.6211 43.2285 50.9082 44.4043 49.8008C42.8047 49.5957 43.0508 49.7734 42.3535 48.3106C41.6699 49.7734 41.916 49.5957 40.3027 49.8008C41.4785 50.9082 41.3828 50.6211 41.082 52.207C41.4649 51.9883 42.0391 51.6191 42.3672 51.6191Z" fill="black"/>
<path fill-rule="evenodd" clip-rule="evenodd" d="M53.4551 70.5H6.36914C5.28906 70.5 5.28906 68.8594 6.36914 68.8594H53.4687C55.1641 68.8594 56.5312 67.4922 56.5312 65.7969V14.8691C56.5312 13.7891 58.1719 13.7891 58.1719 14.8691V65.7969C58.1582 68.3945 56.0527 70.5 53.4551 70.5ZM11.3184 57.0332C10.8672 57.0332 10.498 56.6914 10.498 56.2402V5.20313C10.498 2.60547 12.6035 0.5 15.2012 0.5H62.3008C63.3809 0.5 63.3809 2.14062 62.3008 2.14062H15.2012C13.5059 2.14062 12.1387 3.50781 12.1387 5.20313V56.1855C12.1387 56.6367 11.7695 57.0332 11.3184 57.0332Z" fill="black"/>
<path fill-rule="evenodd" clip-rule="evenodd" d="M67.25 15.7305H57.3516C56.9004 15.7305 56.5312 15.3613 56.5312 14.9102V6.26953C56.5312 3.08398 59.1289 0.5 62.3008 0.5C65.4727 0.5 68.0703 3.09766 68.0703 6.26953V14.9102C68.0566 15.375 67.7012 15.7305 67.25 15.7305ZM58.1582 14.0898H66.4297V6.26953C66.4297 3.98633 64.584 2.14062 62.3008 2.14062C60.0176 2.14062 58.1719 3.98633 58.1719 6.26953L58.1582 14.0898Z" fill="black"/>
<path fill-rule="evenodd" clip-rule="evenodd" d="M6.36914 70.5C3.18359 70.5 0.599609 67.9023 0.599609 64.7305V56.0898C0.599609 55.6387 0.96875 55.2695 1.41992 55.2695H11.3184C11.7695 55.2695 12.1387 55.6387 12.1387 56.0898V64.7305C12.1387 67.9023 9.55469 70.5 6.36914 70.5ZM2.22656 56.9102V64.7305C2.22656 67.0137 4.07227 68.8594 6.35547 68.8594C8.63867 68.8594 10.4844 67.0137 10.4844 64.7305V56.9102H2.22656Z" fill="black"/>
<path fill-rule="evenodd" clip-rule="evenodd" d="M48.2188 16.9062H20.4512C19.3711 16.9062 19.3711 15.2656 20.4512 15.2656H48.2188C49.2988 15.2656 49.2988 16.9062 48.2188 16.9062Z" fill="black"/>
<path fill-rule="evenodd" clip-rule="evenodd" d="M48.2188 26.6133H20.4512C19.3711 26.6133 19.3711 24.9727 20.4512 24.9727H48.2188C49.2988 24.9727 49.2988 26.6133 48.2188 26.6133Z" fill="black"/>
<path fill-rule="evenodd" clip-rule="evenodd" d="M48.2188 36.3203H20.4512C19.3711 36.3203 19.3711 34.6797 20.4512 34.6797H48.2188C49.2988 34.6797 49.2988 36.3203 48.2188 36.3203Z" fill="black"/>
<path fill-rule="evenodd" clip-rule="evenodd" d="M33.043 46.0273H20.4375C19.3574 46.0273 19.3574 44.3867 20.4375 44.3867H33.043C34.123 44.3867 34.123 46.0273 33.043 46.0273Z" fill="black"/>
<path fill-rule="evenodd" clip-rule="evenodd" d="M33.043 55.7344H20.4375C19.3574 55.7344 19.3574 54.0938 20.4375 54.0938H33.043C34.123 54.0938 34.123 55.7344 33.043 55.7344Z" fill="black"/>
<path fill-rule="evenodd" clip-rule="evenodd" d="M42.3672 57.3887C38.334 57.3887 35.0391 54.1074 35.0391 50.0605C35.0391 46.0137 38.3203 42.7324 42.3672 42.7324C46.4141 42.7324 49.6953 46.0137 49.6953 50.0605C49.6953 54.1074 46.4004 57.3887 42.3672 57.3887ZM42.3672 44.3867C39.2363 44.3867 36.6797 46.9434 36.6797 50.0742C36.6797 53.2051 39.2363 55.7617 42.3672 55.7617C45.498 55.7617 48.0547 53.2051 48.0547 50.0742C48.0547 46.9297 45.498 44.3867 42.3672 44.3867Z" fill="black"/>
<path fill-rule="evenodd" clip-rule="evenodd" d="M39.3868 64.9082C39.1134 64.9082 38.8536 64.7715 38.7032 64.5254L37.2267 62.2285L34.588 62.9121C33.9454 63.0762 33.3712 62.4473 33.6173 61.8184L36.6798 53.9844C36.8985 53.4102 37.6642 53.2734 38.0607 53.7519C39.1271 55.0098 40.6993 55.7344 42.34 55.7344C42.9142 55.7344 43.3107 56.3223 43.0919 56.8555L40.1525 64.375C40.0157 64.6894 39.6739 64.9082 39.3868 64.9082ZM37.5821 60.4785C38.2521 60.4785 38.6485 61.4355 39.2091 62.2969L41.1642 57.293C39.9064 57.0879 38.7306 56.541 37.7462 55.748L35.7228 60.9434L37.5821 60.4785Z" fill="black"/>
<path fill-rule="evenodd" clip-rule="evenodd" d="M45.3476 65.1543C45.0058 65.1543 44.7051 64.9355 44.582 64.6347L41.5469 56.8691C41.3418 56.3222 41.7383 55.748 42.3262 55.748C43.9941 55.748 45.539 55.0508 46.6328 53.8203C47.0429 53.3554 47.7949 53.5058 48.0137 54.0664L51.1445 62.0644C51.3906 62.6933 50.8164 63.3222 50.1738 63.1582L47.5351 62.4746L46.0586 64.7578C45.8808 65.0039 45.6347 65.1543 45.3476 65.1543ZM43.4883 57.3066L45.539 62.5429C46.9746 60.3281 46.4687 60.5195 49.0254 61.1758L46.9199 55.8027C45.9219 56.5957 44.7461 57.1015 43.4883 57.3066Z" fill="black"/>
</svg>
