<svg width="17" height="21" viewBox="0 0 17 21" fill="none" xmlns="http://www.w3.org/2000/svg">
<g clip-path="url(#clip0_1_272)">
<path d="M0.28125 8.95312C0.28125 8.42269 0.491964 7.91398 0.867036 7.53891C1.24211 7.16384 1.75082 6.95312 2.28125 6.95312H14.2812C14.8117 6.95312 15.3204 7.16384 15.6955 7.53891C16.0705 7.91398 16.2812 8.42269 16.2812 8.95312V16.9531C16.2812 17.4836 16.0705 17.9923 15.6955 18.3673C15.3204 18.7424 14.8117 18.9531 14.2812 18.9531H2.28125C1.75082 18.9531 1.24211 18.7424 0.867036 18.3673C0.491964 17.9923 0.28125 17.4836 0.28125 16.9531V8.95312ZM2.28125 7.95312C2.01603 7.95312 1.76168 8.05848 1.57414 8.24602C1.38661 8.43355 1.28125 8.68791 1.28125 8.95312V9.17013L8.28125 13.3701L15.2812 9.17013V8.95312C15.2812 8.68791 15.1759 8.43355 14.9884 8.24602C14.8008 8.05848 14.5465 7.95313 14.2812 7.95312H2.28125ZM15.2812 10.3361L10.5732 13.1611L15.2812 16.0581V10.3361ZM15.2472 17.2121L9.60725 13.7411L8.28125 14.5361L6.95525 13.7411L1.31525 17.2111C1.37208 17.4239 1.49757 17.612 1.67224 17.7462C1.84691 17.8803 2.061 17.9531 2.28125 17.9531H14.2812C14.5014 17.9532 14.7154 17.8805 14.89 17.7466C15.0647 17.6126 15.1902 17.4247 15.2472 17.2121ZM1.28125 16.0581L5.98925 13.1611L1.28125 10.3361V16.0581Z" fill="black"/>
</g>
<defs>
<clipPath id="clip0_1_272">
<rect width="16" height="16" fill="white" transform="translate(0.28125 4.95312)"/>
</clipPath>
</defs>
</svg>
