<svg width="15" height="25" viewBox="0 0 15 25" fill="none" xmlns="http://www.w3.org/2000/svg">
<g clip-path="url(#clip0_1_279)">
<path d="M8.59405 24.0312H4.27005C3.94285 24.0312 3.67965 23.768 3.67965 23.4408V13.5721H0.871651C0.546051 13.5721 0.28125 13.3064 0.28125 12.9824V8.34565C0.28125 8.02085 0.546051 7.75525 0.871651 7.75525H3.67965V6.54005C3.67965 3.01205 6.33725 0.03125 9.48365 0.03125H13.2309C13.5557 0.03125 13.8204 0.29605 13.8204 0.62165V5.25685C13.8204 5.58085 13.5557 5.84725 13.2309 5.84725H9.49005C9.42125 5.86405 9.18525 6.06245 9.18525 6.49845V7.75365H13.2309C13.5557 7.75365 13.8204 8.01925 13.8204 8.34405V12.9809C13.8204 13.3049 13.5557 13.5704 13.2309 13.5704H9.18525V23.4393C9.18445 23.7681 8.92045 24.0312 8.59405 24.0312ZM4.86045 22.8496H8.00365V12.9817C8.00365 12.6537 8.26765 12.3912 8.59405 12.3912H12.6397V8.93525H8.59405C8.26765 8.93525 8.00365 8.67285 8.00365 8.34565V6.49925C8.00365 5.40325 8.76845 4.66645 9.48365 4.66645H12.6397V1.21285H9.48365C7.02045 1.21285 4.86125 3.70245 4.86125 6.54005V8.34565C4.86125 8.67285 4.59645 8.93525 4.27085 8.93525H1.46285V12.3912H4.27085C4.59725 12.3912 4.86125 12.6537 4.86125 12.9817L4.86045 22.8496Z" fill="#151515"/>
</g>
<defs>
<clipPath id="clip0_1_279">
<rect width="14" height="24" fill="white" transform="translate(0.28125 0.03125)"/>
</clipPath>
</defs>
</svg>
