<svg width="25" height="25" viewBox="0 0 25 25" fill="none" xmlns="http://www.w3.org/2000/svg">
<g clip-path="url(#clip0_1_283)">
<path d="M18.0413 24.0312H6.52125C4.8663 24.0312 3.27913 23.3739 2.1089 22.2036C0.938676 21.0334 0.28125 19.4463 0.28125 17.7913V6.27125C0.28125 4.6163 0.938676 3.02913 2.1089 1.8589C3.27913 0.688676 4.8663 0.03125 6.52125 0.03125H18.0413C19.6963 0.03125 21.2834 0.688676 22.4536 1.8589C23.6239 3.02913 24.2812 4.6163 24.2812 6.27125V17.7913C24.2812 19.4463 23.6239 21.0334 22.4536 22.2036C21.2834 23.3739 19.6963 24.0312 18.0413 24.0312ZM6.52125 0.99125C5.12091 0.99125 3.77792 1.54753 2.78773 2.53773C1.79753 3.52792 1.24125 4.87091 1.24125 6.27125V17.7913C1.24125 19.1916 1.79753 20.5345 2.78773 21.5247C3.77792 22.5149 5.12091 23.0713 6.52125 23.0713H18.0413C19.4416 23.0713 20.7845 22.5149 21.7747 21.5247C22.7649 20.5345 23.3213 19.1916 23.3213 17.7913V6.27125C23.3213 4.87091 22.7649 3.52792 21.7747 2.53773C20.7845 1.54753 19.4416 0.99125 18.0413 0.99125H6.52125Z" fill="#151515"/>
<path d="M12.2813 17.6329C11.1734 17.6329 10.0904 17.3044 9.16921 16.6889C8.24803 16.0734 7.53006 15.1985 7.10609 14.175C6.68211 13.1514 6.57118 12.0251 6.78732 10.9385C7.00346 9.85187 7.53696 8.85376 8.32036 8.07036C9.10376 7.28696 10.1019 6.75346 11.1885 6.53732C12.2751 6.32118 13.4014 6.43211 14.425 6.85609C15.4485 7.28006 16.3234 7.99803 16.9389 8.91921C17.5544 9.84039 17.8829 10.9234 17.8829 12.0313C17.8817 13.5166 17.2911 14.9406 16.2409 15.9909C15.1906 17.0411 13.7666 17.6317 12.2813 17.6329ZM12.2813 7.39449C11.3631 7.39449 10.4655 7.66684 9.70206 8.17708C8.93865 8.68731 8.34372 9.41252 7.99255 10.261C7.64138 11.1094 7.54974 12.0429 7.72923 12.9434C7.90872 13.844 8.35126 14.671 9.00088 15.3199C9.6505 15.9689 10.4781 16.4106 11.3788 16.5891C12.2795 16.7677 13.2129 16.6751 14.0609 16.323C14.909 15.971 15.6336 15.3753 16.143 14.6114C16.6525 13.8474 16.9239 12.9496 16.9229 12.0313C16.9217 10.8007 16.4322 9.62078 15.562 8.75059C14.6918 7.88039 13.512 7.39096 12.2813 7.38969V7.39449Z" fill="#151515"/>
<path d="M18.2797 6.75112C17.9474 6.75112 17.6226 6.65259 17.3463 6.46798C17.07 6.28338 16.8547 6.021 16.7275 5.71402C16.6004 5.40704 16.5671 5.06925 16.6319 4.74336C16.6968 4.41748 16.8568 4.11813 17.0917 3.88318C17.3267 3.64822 17.626 3.48822 17.9519 3.4234C18.2778 3.35857 18.6156 3.39184 18.9226 3.519C19.2295 3.64615 19.4919 3.86148 19.6765 4.13776C19.8611 4.41403 19.9597 4.73884 19.9597 5.07112C19.9597 5.51668 19.7827 5.944 19.4676 6.25906C19.1525 6.57412 18.7252 6.75112 18.2797 6.75112ZM18.2797 4.35112C18.1373 4.35112 17.9981 4.39334 17.8796 4.47246C17.7612 4.55157 17.669 4.66402 17.6145 4.79558C17.56 4.92715 17.5457 5.07191 17.5735 5.21158C17.6013 5.35125 17.6698 5.47954 17.7705 5.58023C17.8712 5.68093 17.9995 5.7495 18.1392 5.77728C18.2789 5.80506 18.4236 5.7908 18.5552 5.73631C18.6868 5.68181 18.7992 5.58953 18.8783 5.47113C18.9574 5.35272 18.9997 5.21352 18.9997 5.07112C18.9997 4.88016 18.9238 4.69703 18.7888 4.562C18.6538 4.42697 18.4706 4.35112 18.2797 4.35112Z" fill="#151515"/>
</g>
<defs>
<clipPath id="clip0_1_283">
<rect width="24" height="24" fill="white" transform="translate(0.28125 0.03125)"/>
</clipPath>
</defs>
</svg>
