<svg width="17" height="21" viewBox="0 0 17 21" fill="none" xmlns="http://www.w3.org/2000/svg">
<g clip-path="url(#clip0_1_261)">
<path d="M12.4473 13.8931C11.9233 14.9551 11.2133 16.0131 10.4873 16.9631C9.79855 17.8587 9.06215 18.7166 8.28125 19.5331C7.50033 18.7167 6.76393 17.8588 6.07525 16.9631C5.34925 16.0131 4.63925 14.9551 4.11525 13.8931C3.58525 12.8201 3.28125 11.8151 3.28125 10.9531C3.28125 9.62704 3.80803 8.35527 4.74572 7.41759C5.6834 6.47991 6.95517 5.95312 8.28125 5.95312C9.60733 5.95312 10.8791 6.47991 11.8168 7.41759C12.7545 8.35527 13.2812 9.62704 13.2812 10.9531C13.2812 11.8151 12.9763 12.8201 12.4473 13.8931ZM8.28125 20.9531C8.28125 20.9531 14.2812 15.2671 14.2812 10.9531C14.2812 9.36183 13.6491 7.8357 12.5239 6.71048C11.3987 5.58527 9.87255 4.95312 8.28125 4.95312C6.68995 4.95312 5.16383 5.58527 4.03861 6.71048C2.91339 7.8357 2.28125 9.36183 2.28125 10.9531C2.28125 15.2671 8.28125 20.9531 8.28125 20.9531Z" fill="black"/>
<path d="M8.28125 12.9531C7.75082 12.9531 7.24211 12.7424 6.86704 12.3673C6.49196 11.9923 6.28125 11.4836 6.28125 10.9531C6.28125 10.4227 6.49196 9.91398 6.86704 9.53891C7.24211 9.16384 7.75082 8.95312 8.28125 8.95312C8.81168 8.95312 9.32039 9.16384 9.69546 9.53891C10.0705 9.91398 10.2812 10.4227 10.2812 10.9531C10.2812 11.4836 10.0705 11.9923 9.69546 12.3673C9.32039 12.7424 8.81168 12.9531 8.28125 12.9531ZM8.28125 13.9531C9.0769 13.9531 9.83996 13.6371 10.4026 13.0744C10.9652 12.5118 11.2812 11.7488 11.2812 10.9531C11.2812 10.1575 10.9652 9.39441 10.4026 8.8318C9.83996 8.2692 9.0769 7.95312 8.28125 7.95312C7.4856 7.95313 6.72254 8.2692 6.15993 8.8318C5.59732 9.39441 5.28125 10.1575 5.28125 10.9531C5.28125 11.7488 5.59732 12.5118 6.15993 13.0744C6.72254 13.6371 7.4856 13.9531 8.28125 13.9531Z" fill="black"/>
</g>
<defs>
<clipPath id="clip0_1_261">
<rect width="16" height="16" fill="white" transform="translate(0.28125 4.95312)"/>
</clipPath>
</defs>
</svg>
