<svg width="17" height="17" viewBox="0 0 17 17" fill="none" xmlns="http://www.w3.org/2000/svg">
<g clip-path="url(#clip0_1_268)">
<path d="M3.93523 1.78093C3.8762 1.70499 3.80168 1.64248 3.71663 1.59756C3.63159 1.55263 3.53795 1.52631 3.44195 1.52035C3.34595 1.5144 3.24978 1.52893 3.15983 1.563C3.06988 1.59706 2.9882 1.64988 2.92023 1.71793L1.88623 2.75293C1.40323 3.23693 1.22523 3.92193 1.43623 4.52293C2.31197 7.01052 3.73653 9.26903 5.60423 11.1309C7.46616 12.9986 9.72466 14.4232 12.2122 15.2989C12.8132 15.5099 13.4982 15.3319 13.9822 14.8489L15.0162 13.8149C15.0843 13.747 15.1371 13.6653 15.1712 13.5753C15.2052 13.4854 15.2198 13.3892 15.2138 13.2932C15.2079 13.1972 15.1815 13.1036 15.1366 13.0185C15.0917 12.9335 15.0292 12.859 14.9532 12.7999L12.6462 11.0059C12.5651 10.943 12.4707 10.8993 12.3703 10.8782C12.2698 10.8571 12.1658 10.859 12.0662 10.8839L9.87623 11.4309C9.58391 11.504 9.27765 11.5001 8.98728 11.4197C8.6969 11.3392 8.4323 11.185 8.21923 10.9719L5.76323 8.51493C5.55 8.30197 5.39556 8.03741 5.31495 7.74703C5.23433 7.45665 5.2303 7.15034 5.30323 6.85793L5.85123 4.66793C5.87614 4.56833 5.8781 4.46437 5.85697 4.36389C5.83583 4.26342 5.79216 4.16906 5.72923 4.08793L3.93523 1.78093ZM2.16523 0.963932C2.34023 0.788881 2.55046 0.653062 2.78197 0.565493C3.01348 0.477924 3.26098 0.440608 3.50801 0.456025C3.75505 0.471441 3.99599 0.539236 4.21481 0.654908C4.43364 0.770581 4.62536 0.931483 4.77723 1.12693L6.57123 3.43293C6.90023 3.85593 7.01623 4.40693 6.88623 4.92693L6.33923 7.11693C6.31095 7.23036 6.31248 7.34918 6.34367 7.46184C6.37486 7.57451 6.43465 7.67719 6.51723 7.75993L8.97423 10.2169C9.05707 10.2997 9.15993 10.3596 9.27278 10.3908C9.38564 10.422 9.50466 10.4234 9.61823 10.3949L11.8072 9.84793C12.0638 9.78377 12.3317 9.77879 12.5905 9.83336C12.8493 9.88793 13.0924 10.0006 13.3012 10.1629L15.6072 11.9569C16.4362 12.6019 16.5122 13.8269 15.7702 14.5679L14.7362 15.6019C13.9962 16.3419 12.8902 16.6669 11.8592 16.3039C9.22042 15.3755 6.82451 13.8648 4.84923 11.8839C2.86852 9.90895 1.35784 7.51339 0.429233 4.87493C0.0672327 3.84493 0.392233 2.73793 1.13223 1.99793L2.16623 0.963932H2.16523Z" fill="black"/>
</g>
<defs>
<clipPath id="clip0_1_268">
<rect width="16" height="16" fill="white" transform="translate(0.28125 0.453125)"/>
</clipPath>
</defs>
</svg>
