<svg width="20" height="26" viewBox="0 0 20 26" fill="none" xmlns="http://www.w3.org/2000/svg">
<g clip-path="url(#clip0_1_291)">
<path d="M4.82762 24.5201C4.47663 24.5201 4.18781 24.2691 4.1398 23.9228C3.96352 22.7337 3.74631 20.5364 4.18702 18.6674C4.41682 17.7002 5.6083 12.6541 5.85699 11.6011C5.70746 11.1848 5.46192 10.416 5.46192 9.41963C5.46192 7.19327 6.82103 5.44933 8.55553 5.44933C9.94298 5.44933 10.8748 6.46217 10.8748 7.97002C10.8748 8.82389 10.5497 9.87766 10.2058 10.9929C10.0169 11.5996 9.82493 12.2205 9.68249 12.8194C9.56759 13.3081 9.66124 13.7771 9.9477 14.1391C10.2515 14.5239 10.7371 14.7444 11.2801 14.7444C12.5605 14.7444 13.4025 13.744 13.8841 12.9059C14.59 11.6743 14.9796 9.99649 14.9796 8.18172C14.9796 5.35489 13.0563 3.59994 9.9595 3.59994C5.99471 3.59994 3.92024 6.54638 3.92024 9.45741C3.92024 10.4017 4.16105 11.125 4.67652 11.7325C4.98895 12.104 5.12116 12.3928 4.97478 12.9452L4.70092 14.0155C4.57972 14.4846 4.20984 14.786 3.7589 14.786C3.61646 14.786 3.47323 14.7562 3.33236 14.6979C1.42158 13.9188 0.28125 11.8349 0.28125 9.12609C0.28125 6.97843 1.20595 4.81031 2.81925 3.17812C4.12328 1.85678 6.48421 0.28125 10.3238 0.28125C12.8429 0.28125 15.1464 1.16188 16.8093 2.76102C18.3801 4.26729 19.2812 6.33547 19.2812 8.43434C19.2812 11.1037 18.536 13.5339 17.1824 15.2802C15.7816 17.0918 13.7881 18.0889 11.5696 18.0889C10.5292 18.0889 9.44324 17.7183 8.66571 17.0989L8.5697 17.0226L8.53979 17.1406C8.30134 18.0834 7.98104 19.3435 7.87952 19.7071C7.35933 21.5997 5.97975 23.4893 5.41077 24.2141C5.25337 24.4211 5.05112 24.5201 4.82762 24.5201ZM8.55475 6.49287C7.40576 6.49287 6.50467 7.778 6.50467 9.41963C6.50467 10.438 6.81316 11.1572 6.87455 11.291C6.93121 11.4067 6.94538 11.5326 6.91783 11.6475C6.91783 11.6475 5.45956 17.8284 5.20301 18.9074C4.96534 19.9124 4.90868 21.2684 5.04325 22.7243L5.06293 22.9391L5.18569 22.7612C5.76806 21.9239 6.53379 20.6656 6.87298 19.43C7.0107 18.9374 7.58519 16.6661 7.75911 15.9775L7.80869 15.78C7.85984 15.5691 8.03849 15.4125 8.25255 15.3881C8.25648 15.3881 8.26042 15.3881 8.26435 15.3881C8.51304 15.3881 8.68696 15.4943 8.77589 15.6643C9.12452 16.3292 10.2916 17.0462 11.5688 17.0462C15.4943 17.0462 18.2369 13.5057 18.2369 8.43513C18.2369 4.94016 15.2763 1.32557 10.323 1.32557C6.84622 1.32557 4.72531 2.7319 3.55901 3.91237C2.13773 5.35096 1.32321 7.25151 1.32321 9.12688C1.32321 11.3658 2.15819 13.0263 3.61253 13.6842L3.69673 13.7228C3.69673 13.7228 3.93204 12.8028 3.96431 12.68C3.9769 12.6328 3.98319 12.5999 3.98555 12.5794C3.95722 12.5062 3.92889 12.4684 3.87774 12.4086C3.20251 11.6122 2.87434 10.6474 2.87434 9.4582C2.87434 7.62926 3.5535 5.91916 4.78591 4.64347C6.08442 3.29852 7.92123 2.55719 9.95714 2.55719C11.8058 2.55719 13.3529 3.11201 14.4326 4.16026C15.4714 5.16996 16.0209 6.56133 16.0209 8.18251C16.0209 10.1759 15.5833 12.0371 14.7884 13.4237C13.9149 14.9489 12.6683 15.7894 11.2793 15.7894C10.416 15.7894 9.63291 15.4243 9.12924 14.7884C8.64131 14.1722 8.47762 13.3883 8.66728 12.5801C8.81209 11.9725 9.00175 11.3541 9.1859 10.7575C9.52745 9.65494 9.83122 8.67437 9.83122 7.9716C9.83044 7.62375 9.73836 6.49287 8.55475 6.49287Z" fill="#151515"/>
</g>
<defs>
<clipPath id="clip0_1_291">
<rect width="19" height="25" fill="white" transform="translate(0.28125 0.28125)"/>
</clipPath>
</defs>
</svg>
