<svg width="30" height="25" viewBox="0 0 30 25" fill="none" xmlns="http://www.w3.org/2000/svg">
<g clip-path="url(#clip0_1_287)">
<path d="M28.2812 3.63939C27.2493 4.07368 26.1605 4.35254 25.049 4.46713C26.1672 3.76269 27.0213 2.69931 27.4757 1.4459C26.387 2.1006 25.1981 2.56573 23.958 2.82201C23.4741 2.25393 22.8741 1.79957 22.1998 1.49046C21.5254 1.18136 20.7927 1.02493 20.0527 1.03204C19.3334 1.01971 18.6189 1.15215 17.9503 1.42171C17.2817 1.69126 16.6726 2.09258 16.1576 2.60247C15.6428 3.11237 15.2327 3.72074 14.9509 4.39242C14.6692 5.0641 14.5215 5.78578 14.5162 6.51576C14.494 6.93076 14.5388 7.34665 14.6487 7.74701C12.5104 7.68193 10.4114 7.14574 8.49766 6.17561C6.58383 5.20549 4.9008 3.82464 3.56524 2.12878C2.99726 2.92367 2.70989 3.88962 2.74953 4.87064C2.75758 5.7908 2.98422 6.69542 3.41023 7.50776C3.83623 8.32009 4.44904 9.01618 5.19666 9.53698C4.34334 9.40591 3.51885 9.12587 2.75972 8.70925V8.89549C2.68455 10.1547 3.07097 11.3976 3.84462 12.3852C4.61827 13.3727 5.72449 14.035 6.95043 14.2447C6.4632 14.3621 5.96178 14.4074 5.46176 14.3792C5.09646 14.4003 4.73039 14.3547 4.38095 14.2447C4.72159 15.3493 5.39856 16.3159 6.31459 17.0056C7.23061 17.6954 8.33853 18.0726 9.47914 18.0833C7.50541 19.6172 5.08255 20.4367 2.59658 20.4113C2.15405 20.4308 1.71105 20.3855 1.28125 20.2768C4.11089 22.1942 7.46588 23.154 10.8659 23.0186C20.9909 23.0186 25.5895 14.5137 25.5895 7.25037V6.51576C26.655 5.73489 27.5677 4.75947 28.2812 3.63939Z" stroke="#151515" stroke-linecap="round" stroke-linejoin="round"/>
</g>
<defs>
<clipPath id="clip0_1_287">
<rect width="29" height="24" fill="white" transform="translate(0.28125 0.03125)"/>
</clipPath>
</defs>
</svg>
